<?xml version="1.0" standalone="no"?>
<!DOCTYPE svg PUBLIC "-//W3C//DTD SVG 20010904//EN"
 "http://www.w3.org/TR/2001/REC-SVG-20010904/DTD/svg10.dtd">
<svg version="1.0" xmlns="http://www.w3.org/2000/svg"
 width="500.000000pt" height="500.000000pt" viewBox="0 0 500.000000 500.000000"
 preserveAspectRatio="xMidYMid meet">

<g transform="translate(0.000000,500.000000) scale(0.100000,-0.100000)"
fill="#000000" stroke="none">
<path d="M2074 3166 c-14 -22 -14 -31 -4 -56 21 -50 74 -53 105 -6 14 21 15
29 3 53 -10 22 -21 29 -50 31 -30 3 -40 -1 -54 -22z"/>
<path d="M1495 3020 c-33 -4 -96 -8 -140 -9 -77 -2 -79 -2 -49 -15 49 -21 54
-52 54 -311 0 -259 -5 -290 -54 -311 -28 -12 -19 -13 99 -13 118 0 127 1 99
13 -50 22 -55 52 -61 347 -7 303 -16 272 92 289 117 19 200 -14 236 -94 16
-36 19 -68 19 -252 0 -237 -6 -269 -54 -290 -28 -12 -19 -13 99 -13 116 0 127
1 100 13 -51 22 -57 49 -63 298 -4 208 -7 230 -26 265 -34 60 -90 85 -200 89
-50 1 -118 -1 -151 -6z"/>
<path d="M2532 3012 c-107 -39 -183 -139 -201 -264 -17 -125 12 -229 90 -313
97 -105 259 -123 383 -44 l46 29 0 -168 c0 -198 -8 -238 -53 -257 -29 -13 -21
-14 98 -13 72 0 120 3 109 5 -65 13 -74 71 -74 508 0 437 10 501 74 507 12 1
-28 5 -89 8 -344 22 -327 22 -383 2z m202 -7 c32 -9 71 -25 87 -36 l29 -20 0
-232 c0 -213 -2 -235 -20 -264 -38 -63 -147 -111 -222 -97 -124 24 -200 148
-200 329 0 203 90 330 237 334 17 1 57 -6 89 -14z"/>
<path d="M4019 3015 c-64 -20 -141 -93 -176 -163 -26 -52 -28 -66 -28 -167 1
-91 4 -118 22 -157 30 -64 87 -124 147 -156 43 -22 64 -26 136 -27 73 0 93 4
142 28 58 28 106 74 133 127 24 47 3 34 -30 -18 -42 -65 -122 -106 -208 -105
-107 0 -185 51 -234 151 -24 51 -27 68 -28 162 0 120 12 168 58 236 42 63 94
89 172 88 75 0 135 -30 170 -82 67 -101 38 -262 -47 -262 -35 0 -53 9 -130 66
-73 53 -114 63 -165 38 -56 -28 -55 -50 0 -46 33 3 58 -3 96 -22 151 -77 289
-66 336 25 21 40 22 126 2 166 -20 39 -77 89 -125 109 -53 23 -186 28 -243 9z"/>
<path d="M581 2999 c47 -17 52 -46 58 -294 6 -241 11 -265 57 -306 45 -40 88
-53 174 -53 135 -1 366 16 342 25 -11 4 -29 20 -39 35 -16 25 -18 58 -21 316
l-3 288 -82 -1 c-58 0 -76 -3 -60 -9 12 -5 30 -21 40 -36 16 -25 18 -58 21
-305 l3 -278 -38 -10 c-21 -6 -69 -11 -107 -11 -91 0 -143 24 -177 83 -23 41
-24 48 -27 305 l-3 262 -82 -1 c-64 0 -76 -3 -56 -10z"/>
<path d="M2027 3000 c12 -5 30 -21 40 -37 16 -24 18 -53 18 -279 0 -241 -1
-254 -21 -281 -11 -15 -32 -31 -45 -34 -13 -4 35 -7 106 -7 85 -1 122 2 108 8
-12 5 -30 21 -40 36 -16 25 -18 58 -21 316 l-3 288 -82 -1 c-58 0 -76 -3 -60
-9z"/>
<path d="M3081 2999 c47 -17 52 -46 58 -294 6 -241 11 -265 57 -306 45 -40 88
-53 174 -53 135 -1 366 16 342 25 -11 4 -29 20 -39 35 -16 25 -18 58 -21 316
l-3 288 -82 -1 c-58 0 -76 -3 -60 -9 12 -5 30 -21 40 -36 16 -25 18 -58 21
-305 l3 -278 -38 -10 c-21 -6 -69 -11 -107 -11 -91 0 -143 24 -177 83 -23 41
-24 48 -27 305 l-3 262 -82 -1 c-64 0 -76 -3 -56 -10z"/>
<path d="M1607 2154 c-4 -4 -7 -128 -7 -276 l0 -268 900 0 900 0 0 275 c0 268
0 275 -20 275 -19 0 -20 -7 -20 -255 l0 -255 -855 0 -855 0 -2 252 c-3 219 -5
253 -18 256 -9 1 -19 0 -23 -4z"/>
<path d="M1910 1800 l0 -80 48 0 c67 0 104 39 67 70 -11 9 -13 16 -5 24 16 16
12 44 -9 56 -11 5 -38 10 -60 10 l-41 0 0 -80z m95 35 c0 -16 -8 -21 -37 -23
-35 -3 -38 -1 -38 23 0 24 3 26 38 23 29 -2 37 -7 37 -23z m8 -54 c20 -20 -1
-41 -43 -41 -38 0 -40 1 -40 31 0 31 1 31 37 26 20 -4 41 -11 46 -16z"/>
<path d="M2250 1800 l0 -80 61 0 c37 0 58 4 54 10 -3 6 -26 10 -51 10 l-44 0
0 70 c0 40 -4 70 -10 70 -6 0 -10 -33 -10 -80z"/>
<path d="M2593 1858 c-29 -32 -34 -53 -22 -88 13 -36 36 -50 83 -50 68 0 101
86 51 135 -32 33 -84 34 -112 3z m99 -15 c18 -16 24 -59 10 -79 -4 -6 -17 -16
-30 -23 -30 -16 -73 4 -86 41 -21 60 57 105 106 61z"/>
<path d="M2963 1858 c-28 -32 -34 -54 -22 -85 18 -48 73 -68 120 -43 13 7 19
7 19 0 0 -5 5 -10 11 -10 6 0 9 16 7 38 -3 35 -5 37 -40 40 -22 2 -38 -1 -38
-7 0 -6 13 -11 30 -11 23 0 28 -4 23 -16 -17 -45 -99 -33 -117 18 -21 60 57
105 106 61 10 -9 21 -13 26 -9 13 13 -39 46 -72 46 -21 0 -40 -8 -53 -22z"/>
</g>
</svg>
